# xmcd
#
# Track frame offsets:
#	150
#	11495
#	29754
#	38037
#	48706
#	58932
#	71466
#	83402
#	96026
#	107440
#	119625
#	137836
#	151790
#	162935
#	181948
#
# Disc length: 2597 seconds
#
# Revision: 1
# Processed by: cddbd v1.4PL0 Copyright (c) Steve Scherf et al.
# Submitted via: audiograbber 1.80.04
#
DISCID=c10a230f
DTITLE=Jeffrey and Marita - Greatest Country Duets
DYEAR=2003
DGENRE=Country
TTITLE0=Are You Mine
TTITLE1=Islands In The Stream
TTITLE2=If Teardrops Were Pennies
TTITLE3=Love Is No Excuse
TTITLE4=Making Plans
TTITLE5=Somewhere Between
TTITLE6=Golden Ring
TTITLE7=As Soon As I Hang Up The Phone
TTITLE8=Help Me Make It Through The Night
TTITLE9=Feelings
TTITLE10=Don't Cry Joni
TTITLE11=Simply Divine
TTITLE12=Say Forever You'll Be Mine
TTITLE13=The Words She Had To Say
TTITLE14=Sometimes
EXTD=
EXTT0=
EXTT1=
EXTT2=
EXTT3=
EXTT4=
EXTT5=
EXTT6=
EXTT7=
EXTT8=
EXTT9=
EXTT10=
EXTT11=
EXTT12=
EXTT13=
EXTT14=
PLAYORDER=
